<svg width="129" height="128" viewBox="0 0 129 128" fill="none" xmlns="http://www.w3.org/2000/svg">
    <path fill-rule="evenodd" clip-rule="evenodd" d="M85.7959 10.7574C85.4252 11.3239 85.0817 11.9077 84.7666 12.5068L83.0439 15.6161L67.9666 23.0294L67.0706 23.4721C58.3986 27.9254 52.2866 36.2881 50.4519 46.0481C50.3986 46.3148 50.3506 46.5974 50.2706 47.0614L50.2652 47.0988L50.1052 48.0214C48.6724 56.0028 44.7631 63.3305 38.9319 68.9654L34.6439 73.1788C31.9559 75.8241 29.7906 77.9574 28.1692 79.7921C26.5159 81.6588 25.1826 83.4934 24.3826 85.5948C23.329 88.3712 22.9549 91.3593 23.2917 94.3098C23.6285 97.2602 24.6664 100.087 26.3186 102.555C27.5772 104.421 29.2946 105.893 31.3266 107.323C33.3159 108.72 35.9079 110.283 39.1132 112.213L42.9159 114.507C46.1212 116.437 48.7132 117.995 50.8732 119.093C53.0706 120.213 55.1719 121.051 57.4066 121.259C60.3386 121.525 63.29 121.035 65.979 119.836C68.668 118.638 71.0049 116.77 72.7666 114.411C74.1212 112.624 74.9692 110.507 75.6892 108.096C76.3986 105.723 77.0812 102.709 77.9292 98.9494L79.2892 92.9708L79.4972 92.0588C81.3458 84.1851 85.6331 77.0962 91.7479 71.8028L91.7799 71.7761L92.5319 71.1041C99.7746 64.5068 103.604 54.8161 102.975 44.8961L102.895 43.8721L101.497 26.4481L103.391 23.0241C103.7 22.4748 104.031 21.8721 104.276 21.3281C104.559 20.7094 104.868 19.8668 104.916 18.8374C104.978 17.4652 104.615 16.1073 103.876 14.9494C103.396 14.2313 102.787 13.609 102.079 13.1148C101.556 12.7476 101.016 12.4042 100.463 12.0854L96.1159 9.46676C95.5421 9.11037 94.9551 8.77591 94.3559 8.4641C93.5438 8.04776 92.6576 7.79583 91.7479 7.72276C90.3095 7.63611 88.8818 8.01784 87.6786 8.81076C86.9272 9.32905 86.2856 9.99059 85.7906 10.7574M85.7372 23.2001L93.5879 27.9308L94.9106 44.4694C94.9372 44.8108 94.9586 45.0188 94.9639 45.1841L89.3372 47.0561C87.6874 47.6076 85.9255 47.7365 84.2129 47.4309C82.5004 47.1253 80.8918 46.3949 79.5346 45.3068C76.7875 43.1057 73.4667 41.7388 69.9662 41.3682C66.4656 40.9976 62.9323 41.6389 59.7852 43.2161L59.4652 43.3761C61.6029 37.5704 65.9325 32.8348 71.5239 30.1868L85.7372 23.2001Z" fill="#FCFCFC"/>
</svg>
