<svg width="128" height="128" viewBox="0 0 129 128" fill="currentColor" xmlns="http://www.w3.org/2000/svg">
    <path d="M112.5 51.9999H108.315C107.31 41.0743 102.259 30.9183 94.1534 23.524C86.0477 16.1297 75.4718 12.0305 64.5 12.0305C53.5282 12.0305 42.9523 16.1297 34.8466 23.524C26.7408 30.9183 21.6901 41.0743 20.685 51.9999H16.5C15.4391 51.9999 14.4217 52.4213 13.6716 53.1715C12.9214 53.9216 12.5 54.939 12.5 55.9999C12.5176 65.5125 15.1355 74.8393 20.0706 82.9716C25.0056 91.1039 32.0701 97.7323 40.5 102.14V104C40.5 106.122 41.3429 108.156 42.8431 109.657C44.3434 111.157 46.3783 112 48.5 112H80.5C82.6217 112 84.6566 111.157 86.1569 109.657C87.6571 108.156 88.5 106.122 88.5 104V102.14C96.9299 97.7323 103.994 91.1039 108.929 82.9716C113.865 74.8393 116.482 65.5125 116.5 55.9999C116.5 54.939 116.079 53.9216 115.328 53.1715C114.578 52.4213 113.561 51.9999 112.5 51.9999ZM87.24 28.1149C88.1567 28.8649 89.035 29.6566 89.875 30.4899C79.2268 34.2357 70.4275 41.9339 65.3 51.9899H50.55C53.05 44.9821 57.6527 38.9169 63.7292 34.6231C69.8056 30.3293 77.0596 28.0163 84.5 27.9999C85.415 27.9999 86.33 28.0449 87.24 28.1149ZM74.56 51.9999C79.4096 44.7243 86.7464 39.4675 95.195 37.2149C97.9574 41.7082 99.6905 46.7574 100.27 51.9999H74.56ZM64.5 19.9999C67.7098 20.0028 70.9048 20.435 74 21.2849C66.4622 23.1548 59.5504 26.9786 53.9614 32.371C48.3723 37.7634 44.3035 44.5338 42.165 51.9999H28.73C29.7222 43.2042 33.9166 35.0813 40.5135 29.1796C47.1105 23.278 55.6485 20.0104 64.5 19.9999Z"/>
</svg>
