<svg width="128" height="128" viewBox="0 0 129 128" fill="none" xmlns="http://www.w3.org/2000/svg">
<path d="M59.58 122.344L58.044 121.304C50.3567 115.925 43.2134 109.808 36.716 103.04C25.3 91.08 12.5 73.152 12.5 51.992C12.5 25.96 33.628 0 64.5 0C95.372 0 116.5 25.96 116.5 52C116.5 73.16 103.7 91.088 92.284 103.032C85.7866 109.8 78.6433 115.917 70.956 121.296C70.3053 121.749 69.7933 122.096 69.42 122.336C67.796 123.416 66.14 124.44 64.5 125.48C62.86 124.44 61.204 123.416 59.58 122.344ZM64.5 68C68.7435 68 72.8131 66.3143 75.8137 63.3137C78.8143 60.3131 80.5 56.2435 80.5 52C80.5 47.7565 78.8143 43.6869 75.8137 40.6863C72.8131 37.6857 68.7435 36 64.5 36C60.2565 36 56.1869 37.6857 53.1863 40.6863C50.1857 43.6869 48.5 47.7565 48.5 52C48.5 56.2435 50.1857 60.3131 53.1863 63.3137C56.1869 66.3143 60.2565 68 64.5 68Z" fill="#FCFCFC"/>
</svg>
