<svg width="128" height="128" viewBox="0 0 129 128" fill="currentColor" xmlns="http://www.w3.org/2000/svg">
    <path d="M37.8334 42.6666C43.7245 42.6666 48.5001 37.891 48.5001 31.9999C48.5001 26.1089 43.7245 21.3333 37.8334 21.3333C31.9424 21.3333 27.1667 26.1089 27.1667 31.9999C27.1667 37.891 31.9424 42.6666 37.8334 42.6666Z"/>
    <path d="M112.5 64H59.9667C58.3134 62.8267 56.8201 61.5467 55.5934 60.16L48.1268 51.8933C47.1134 50.7733 45.8334 49.8667 44.4467 49.2267C42.9001 48.48 41.1401 48 39.3267 48H39.1667C32.5534 48 27.1667 53.3867 27.1667 60V64H16.5001C13.5667 64 11.1667 66.4 11.1667 69.3333V106.667C11.1667 112.533 15.9667 117.333 21.8334 117.333H107.167C113.033 117.333 117.833 112.533 117.833 106.667V69.3333C117.833 66.4 115.433 64 112.5 64ZM37.8334 101.333C37.8334 104.267 35.4334 106.667 32.5001 106.667C29.5667 106.667 27.1667 104.267 27.1667 101.333V80C27.1667 77.0667 29.5667 74.6667 32.5001 74.6667C35.4334 74.6667 37.8334 77.0667 37.8334 80V101.333ZM59.1667 101.333C59.1667 104.267 56.7668 106.667 53.8334 106.667C50.9001 106.667 48.5001 104.267 48.5001 101.333V80C48.5001 77.0667 50.9001 74.6667 53.8334 74.6667C56.7668 74.6667 59.1667 77.0667 59.1667 80V101.333ZM80.5001 101.333C80.5001 104.267 78.1001 106.667 75.1667 106.667C72.2334 106.667 69.8334 104.267 69.8334 101.333V80C69.8334 77.0667 72.2334 74.6667 75.1667 74.6667C78.1001 74.6667 80.5001 77.0667 80.5001 80V101.333ZM101.833 101.333C101.833 104.267 99.4334 106.667 96.5001 106.667C93.5667 106.667 91.1667 104.267 91.1667 101.333V80C91.1667 77.0667 93.5667 74.6667 96.5001 74.6667C99.4334 74.6667 101.833 77.0667 101.833 80V101.333ZM80.8201 53.3333C83.4868 53.3333 85.7801 51.2533 85.8334 48.5867C86.0468 41.12 82.7401 35.36 78.6334 31.2533C75.1667 27.4133 74.3667 24.48 74.5267 21.0667C74.6334 18.2933 72.3401 16 69.5134 16C66.8467 16 64.5534 18.1333 64.5001 20.8C64.3401 27.68 67.1668 33.76 71.7001 38.1333C74.9534 41.28 75.8601 44.9067 75.8601 48.2133C75.8067 50.9867 77.9934 53.3333 80.8201 53.3333ZM102.153 53.3333C104.82 53.3333 107.113 51.2533 107.167 48.5867C107.38 41.12 104.073 35.36 99.9668 31.2533C96.5001 27.4133 95.7001 24.48 95.8601 21.0667C95.9667 18.2933 93.6734 16 90.8468 16C88.1801 16 85.8867 18.1333 85.8334 20.8C85.6734 27.68 88.5001 33.76 93.0334 38.1333C96.2868 41.28 97.1934 44.9067 97.1934 48.2133C97.1401 50.9867 99.3268 53.3333 102.153 53.3333Z"/>
</svg>
