<svg width="129" height="128" viewBox="0 0 129 128" fill="none" xmlns="http://www.w3.org/2000/svg">
    <path fill-rule="evenodd" clip-rule="evenodd" d="M80.5 16C88.9869 16 97.1263 19.3714 103.127 25.3726C109.129 31.3737 112.5 39.5131 112.5 48V58.6667C112.5 60.0812 111.938 61.4377 110.938 62.4379C109.938 63.4381 108.581 64 107.167 64H96.5V101.333C96.5 104.162 95.3762 106.875 93.3758 108.876C91.3754 110.876 88.6623 112 85.8333 112H43.1667C40.3377 112 37.6246 110.876 35.6242 108.876C33.6238 106.875 32.5 104.162 32.5 101.333V64H21.8333C20.4188 64 19.0623 63.4381 18.0621 62.4379C17.0619 61.4377 16.5 60.0812 16.5 58.6667V48C16.5 39.5131 19.8714 31.3737 25.8726 25.3726C31.8737 19.3714 40.0131 16 48.5 16H80.5ZM80.5 26.6667H48.5C48.496 30.8315 50.1161 34.8338 53.0161 37.823C55.9161 40.8123 59.8674 42.553 64.0305 42.6752C68.1935 42.7974 72.2401 41.2915 75.3105 38.4775C78.3809 35.6635 80.233 31.7632 80.4733 27.6053L80.5 26.6667Z" fill="#FCFCFC"/>
</svg>
